<mxfile host="app.diagrams.net" modified="2024-01-17T00:34:00.387Z" agent="Mozilla/5.0 (Windows NT 10.0; Win64; x64) AppleWebKit/537.36 (KHTML, like Gecko) Chrome/120.0.0.0 Safari/537.36" etag="P7qurG1f0DrmlLb1tQd-" version="22.1.20" type="device">
  <diagram id="R2lEEEUBdFMjLlhIrx00" name="Page-1">
    <mxGraphModel dx="1477" dy="649" grid="1" gridSize="10" guides="1" tooltips="1" connect="1" arrows="1" fold="1" page="1" pageScale="1" pageWidth="1200" pageHeight="1920" math="0" shadow="0" extFonts="Permanent Marker^https://fonts.googleapis.com/css?family=Permanent+Marker">
      <root>
        <mxCell id="0" />
        <mxCell id="1" parent="0" />
        <mxCell id="HjqkrDRJ8IezmJWhLxWS-1" value="doctor" style="whiteSpace=wrap;html=1;align=center;" parent="1" vertex="1">
          <mxGeometry x="530" y="280" width="100" height="40" as="geometry" />
        </mxCell>
        <mxCell id="HjqkrDRJ8IezmJWhLxWS-2" value="appointment" style="shape=ext;margin=3;double=1;whiteSpace=wrap;html=1;align=center;" parent="1" vertex="1">
          <mxGeometry x="870" y="280" width="100" height="40" as="geometry" />
        </mxCell>
        <mxCell id="HjqkrDRJ8IezmJWhLxWS-3" value="patient" style="whiteSpace=wrap;html=1;align=center;" parent="1" vertex="1">
          <mxGeometry x="870" y="490" width="100" height="40" as="geometry" />
        </mxCell>
        <mxCell id="HjqkrDRJ8IezmJWhLxWS-4" value="supervise" style="shape=rhombus;perimeter=rhombusPerimeter;whiteSpace=wrap;html=1;align=center;" parent="1" vertex="1">
          <mxGeometry x="700" y="270" width="120" height="60" as="geometry" />
        </mxCell>
        <mxCell id="HjqkrDRJ8IezmJWhLxWS-5" value="book" style="shape=rhombus;perimeter=rhombusPerimeter;whiteSpace=wrap;html=1;align=center;" parent="1" vertex="1">
          <mxGeometry x="860" y="380" width="120" height="60" as="geometry" />
        </mxCell>
        <mxCell id="HjqkrDRJ8IezmJWhLxWS-6" value="secretary" style="rounded=1;arcSize=10;whiteSpace=wrap;html=1;align=center;" parent="1" vertex="1">
          <mxGeometry x="470" y="500" width="100" height="40" as="geometry" />
        </mxCell>
        <mxCell id="HjqkrDRJ8IezmJWhLxWS-7" value="work for" style="shape=rhombus;perimeter=rhombusPerimeter;whiteSpace=wrap;html=1;align=center;" parent="1" vertex="1">
          <mxGeometry x="490" y="380" width="120" height="60" as="geometry" />
        </mxCell>
        <mxCell id="HjqkrDRJ8IezmJWhLxWS-9" value="unavailable_hours" style="shape=ext;margin=3;double=1;whiteSpace=wrap;html=1;align=center;" parent="1" vertex="1">
          <mxGeometry x="510" y="110" width="120" height="40" as="geometry" />
        </mxCell>
        <mxCell id="HjqkrDRJ8IezmJWhLxWS-10" value="week_schedule" style="shape=ext;margin=3;double=1;whiteSpace=wrap;html=1;align=center;" parent="1" vertex="1">
          <mxGeometry x="150" y="280" width="100" height="40" as="geometry" />
        </mxCell>
        <mxCell id="HjqkrDRJ8IezmJWhLxWS-11" value="makes" style="shape=rhombus;perimeter=rhombusPerimeter;whiteSpace=wrap;html=1;align=center;" parent="1" vertex="1">
          <mxGeometry x="510" y="180" width="120" height="60" as="geometry" />
        </mxCell>
        <mxCell id="HjqkrDRJ8IezmJWhLxWS-12" value="has a" style="shape=rhombus;perimeter=rhombusPerimeter;whiteSpace=wrap;html=1;align=center;" parent="1" vertex="1">
          <mxGeometry x="330" y="270" width="120" height="60" as="geometry" />
        </mxCell>
        <mxCell id="HjqkrDRJ8IezmJWhLxWS-13" value="specialization" style="whiteSpace=wrap;html=1;align=center;" parent="1" vertex="1">
          <mxGeometry x="190" y="490" width="100" height="40" as="geometry" />
        </mxCell>
        <mxCell id="HjqkrDRJ8IezmJWhLxWS-14" value="special in" style="shape=rhombus;perimeter=rhombusPerimeter;whiteSpace=wrap;html=1;align=center;" parent="1" vertex="1">
          <mxGeometry x="310" y="410" width="120" height="60" as="geometry" />
        </mxCell>
        <mxCell id="KuMHuxVkpf0_pSYLcks3-3" style="edgeStyle=orthogonalEdgeStyle;rounded=0;orthogonalLoop=1;jettySize=auto;html=1;exitX=0.5;exitY=0;exitDx=0;exitDy=0;entryX=0.5;entryY=1;entryDx=0;entryDy=0;" edge="1" parent="1" source="HjqkrDRJ8IezmJWhLxWS-15" target="KuMHuxVkpf0_pSYLcks3-2">
          <mxGeometry relative="1" as="geometry" />
        </mxCell>
        <mxCell id="HjqkrDRJ8IezmJWhLxWS-15" value="department" style="whiteSpace=wrap;html=1;align=center;" parent="1" vertex="1">
          <mxGeometry x="230" y="130" width="100" height="40" as="geometry" />
        </mxCell>
        <mxCell id="HjqkrDRJ8IezmJWhLxWS-16" value="works in" style="shape=rhombus;perimeter=rhombusPerimeter;whiteSpace=wrap;html=1;align=center;" parent="1" vertex="1">
          <mxGeometry x="340" y="190" width="120" height="60" as="geometry" />
        </mxCell>
        <mxCell id="HjqkrDRJ8IezmJWhLxWS-18" value="payment" style="shape=ext;margin=3;double=1;whiteSpace=wrap;html=1;align=center;" parent="1" vertex="1">
          <mxGeometry x="640" y="610" width="100" height="40" as="geometry" />
        </mxCell>
        <mxCell id="HjqkrDRJ8IezmJWhLxWS-19" value="has a" style="shape=rhombus;perimeter=rhombusPerimeter;whiteSpace=wrap;html=1;align=center;" parent="1" vertex="1">
          <mxGeometry x="630" y="480" width="120" height="60" as="geometry" />
        </mxCell>
        <mxCell id="HjqkrDRJ8IezmJWhLxWS-24" value="" style="endArrow=none;html=1;rounded=0;" parent="1" source="HjqkrDRJ8IezmJWhLxWS-3" target="HjqkrDRJ8IezmJWhLxWS-19" edge="1">
          <mxGeometry relative="1" as="geometry">
            <mxPoint x="620" y="550" as="sourcePoint" />
            <mxPoint x="780" y="550" as="targetPoint" />
          </mxGeometry>
        </mxCell>
        <mxCell id="HjqkrDRJ8IezmJWhLxWS-25" value="1" style="resizable=0;html=1;whiteSpace=wrap;align=right;verticalAlign=bottom;" parent="HjqkrDRJ8IezmJWhLxWS-24" connectable="0" vertex="1">
          <mxGeometry x="1" relative="1" as="geometry" />
        </mxCell>
        <mxCell id="HjqkrDRJ8IezmJWhLxWS-26" value="" style="endArrow=none;html=1;rounded=0;exitX=0.5;exitY=0;exitDx=0;exitDy=0;entryX=0.5;entryY=1;entryDx=0;entryDy=0;" parent="1" source="HjqkrDRJ8IezmJWhLxWS-18" target="HjqkrDRJ8IezmJWhLxWS-19" edge="1">
          <mxGeometry relative="1" as="geometry">
            <mxPoint x="700" y="630" as="sourcePoint" />
            <mxPoint x="690" y="700" as="targetPoint" />
          </mxGeometry>
        </mxCell>
        <mxCell id="HjqkrDRJ8IezmJWhLxWS-27" value="1" style="resizable=0;html=1;whiteSpace=wrap;align=right;verticalAlign=bottom;" parent="HjqkrDRJ8IezmJWhLxWS-26" connectable="0" vertex="1">
          <mxGeometry x="1" relative="1" as="geometry">
            <mxPoint x="-10" y="21" as="offset" />
          </mxGeometry>
        </mxCell>
        <mxCell id="HjqkrDRJ8IezmJWhLxWS-28" value="" style="endArrow=none;html=1;rounded=0;exitX=1;exitY=0.5;exitDx=0;exitDy=0;entryX=0;entryY=0.5;entryDx=0;entryDy=0;" parent="1" source="HjqkrDRJ8IezmJWhLxWS-1" target="HjqkrDRJ8IezmJWhLxWS-4" edge="1">
          <mxGeometry relative="1" as="geometry">
            <mxPoint x="630" y="360" as="sourcePoint" />
            <mxPoint x="790" y="360" as="targetPoint" />
          </mxGeometry>
        </mxCell>
        <mxCell id="HjqkrDRJ8IezmJWhLxWS-29" value="1" style="resizable=0;html=1;whiteSpace=wrap;align=right;verticalAlign=bottom;" parent="HjqkrDRJ8IezmJWhLxWS-28" connectable="0" vertex="1">
          <mxGeometry x="1" relative="1" as="geometry" />
        </mxCell>
        <mxCell id="HjqkrDRJ8IezmJWhLxWS-30" value="" style="endArrow=none;html=1;rounded=0;entryX=1;entryY=0.5;entryDx=0;entryDy=0;exitX=0;exitY=0.5;exitDx=0;exitDy=0;" parent="1" source="HjqkrDRJ8IezmJWhLxWS-2" target="HjqkrDRJ8IezmJWhLxWS-4" edge="1">
          <mxGeometry relative="1" as="geometry">
            <mxPoint x="710" y="370" as="sourcePoint" />
            <mxPoint x="870" y="370" as="targetPoint" />
          </mxGeometry>
        </mxCell>
        <mxCell id="HjqkrDRJ8IezmJWhLxWS-31" value="N" style="resizable=0;html=1;whiteSpace=wrap;align=right;verticalAlign=bottom;" parent="HjqkrDRJ8IezmJWhLxWS-30" connectable="0" vertex="1">
          <mxGeometry x="1" relative="1" as="geometry" />
        </mxCell>
        <mxCell id="HjqkrDRJ8IezmJWhLxWS-34" value="" style="endArrow=none;html=1;rounded=0;dashed=1;dashPattern=1 2;entryX=0.5;entryY=1;entryDx=0;entryDy=0;exitX=0.5;exitY=0;exitDx=0;exitDy=0;" parent="1" source="HjqkrDRJ8IezmJWhLxWS-5" target="HjqkrDRJ8IezmJWhLxWS-2" edge="1">
          <mxGeometry relative="1" as="geometry">
            <mxPoint x="680" y="380" as="sourcePoint" />
            <mxPoint x="840" y="380" as="targetPoint" />
          </mxGeometry>
        </mxCell>
        <mxCell id="HjqkrDRJ8IezmJWhLxWS-36" value="" style="endArrow=none;html=1;rounded=0;dashed=1;dashPattern=1 2;exitX=0.421;exitY=0.023;exitDx=0;exitDy=0;exitPerimeter=0;entryX=0.5;entryY=1;entryDx=0;entryDy=0;" parent="1" source="HjqkrDRJ8IezmJWhLxWS-6" target="HjqkrDRJ8IezmJWhLxWS-7" edge="1">
          <mxGeometry relative="1" as="geometry">
            <mxPoint x="490" y="470" as="sourcePoint" />
            <mxPoint x="650" y="470" as="targetPoint" />
          </mxGeometry>
        </mxCell>
        <mxCell id="HjqkrDRJ8IezmJWhLxWS-37" value="1" style="resizable=0;html=1;whiteSpace=wrap;align=right;verticalAlign=bottom;" parent="HjqkrDRJ8IezmJWhLxWS-36" connectable="0" vertex="1">
          <mxGeometry x="1" relative="1" as="geometry">
            <mxPoint x="-10" y="10" as="offset" />
          </mxGeometry>
        </mxCell>
        <mxCell id="HjqkrDRJ8IezmJWhLxWS-38" value="" style="endArrow=none;html=1;rounded=0;dashed=1;dashPattern=1 2;entryX=0.5;entryY=0;entryDx=0;entryDy=0;exitX=0.5;exitY=1;exitDx=0;exitDy=0;" parent="1" source="HjqkrDRJ8IezmJWhLxWS-1" target="HjqkrDRJ8IezmJWhLxWS-7" edge="1">
          <mxGeometry relative="1" as="geometry">
            <mxPoint x="450" y="350" as="sourcePoint" />
            <mxPoint x="610" y="350" as="targetPoint" />
          </mxGeometry>
        </mxCell>
        <mxCell id="HjqkrDRJ8IezmJWhLxWS-39" value="1" style="resizable=0;html=1;whiteSpace=wrap;align=right;verticalAlign=bottom;" parent="HjqkrDRJ8IezmJWhLxWS-38" connectable="0" vertex="1">
          <mxGeometry x="1" relative="1" as="geometry" />
        </mxCell>
        <mxCell id="HjqkrDRJ8IezmJWhLxWS-42" value="" style="endArrow=none;html=1;rounded=0;entryX=1;entryY=0.5;entryDx=0;entryDy=0;exitX=0;exitY=0.5;exitDx=0;exitDy=0;" parent="1" source="HjqkrDRJ8IezmJWhLxWS-1" target="HjqkrDRJ8IezmJWhLxWS-12" edge="1">
          <mxGeometry relative="1" as="geometry">
            <mxPoint x="350" y="350" as="sourcePoint" />
            <mxPoint x="510" y="350" as="targetPoint" />
          </mxGeometry>
        </mxCell>
        <mxCell id="HjqkrDRJ8IezmJWhLxWS-43" value="1" style="resizable=0;html=1;whiteSpace=wrap;align=right;verticalAlign=bottom;" parent="HjqkrDRJ8IezmJWhLxWS-42" connectable="0" vertex="1">
          <mxGeometry x="1" relative="1" as="geometry" />
        </mxCell>
        <mxCell id="HjqkrDRJ8IezmJWhLxWS-44" value="" style="endArrow=none;html=1;rounded=0;dashed=1;dashPattern=1 2;exitX=0.5;exitY=0;exitDx=0;exitDy=0;entryX=0.5;entryY=1;entryDx=0;entryDy=0;" parent="1" source="HjqkrDRJ8IezmJWhLxWS-1" target="HjqkrDRJ8IezmJWhLxWS-11" edge="1">
          <mxGeometry relative="1" as="geometry">
            <mxPoint x="580" y="260" as="sourcePoint" />
            <mxPoint x="740" y="260" as="targetPoint" />
          </mxGeometry>
        </mxCell>
        <mxCell id="HjqkrDRJ8IezmJWhLxWS-45" value="1" style="resizable=0;html=1;whiteSpace=wrap;align=right;verticalAlign=bottom;" parent="HjqkrDRJ8IezmJWhLxWS-44" connectable="0" vertex="1">
          <mxGeometry x="1" relative="1" as="geometry">
            <mxPoint x="20" y="10" as="offset" />
          </mxGeometry>
        </mxCell>
        <mxCell id="HjqkrDRJ8IezmJWhLxWS-46" value="" style="endArrow=none;html=1;rounded=0;dashed=1;dashPattern=1 2;entryX=0.5;entryY=1;entryDx=0;entryDy=0;" parent="1" source="HjqkrDRJ8IezmJWhLxWS-11" target="HjqkrDRJ8IezmJWhLxWS-9" edge="1">
          <mxGeometry relative="1" as="geometry">
            <mxPoint x="570" y="180" as="sourcePoint" />
            <mxPoint x="730" y="180" as="targetPoint" />
          </mxGeometry>
        </mxCell>
        <mxCell id="HjqkrDRJ8IezmJWhLxWS-47" value="N" style="resizable=0;html=1;whiteSpace=wrap;align=right;verticalAlign=bottom;" parent="HjqkrDRJ8IezmJWhLxWS-46" connectable="0" vertex="1">
          <mxGeometry x="1" relative="1" as="geometry">
            <mxPoint y="31" as="offset" />
          </mxGeometry>
        </mxCell>
        <mxCell id="HjqkrDRJ8IezmJWhLxWS-48" value="" style="endArrow=none;html=1;rounded=0;exitX=0;exitY=0;exitDx=0;exitDy=0;entryX=1;entryY=0.5;entryDx=0;entryDy=0;" parent="1" source="HjqkrDRJ8IezmJWhLxWS-1" target="HjqkrDRJ8IezmJWhLxWS-16" edge="1">
          <mxGeometry relative="1" as="geometry">
            <mxPoint x="440" y="260" as="sourcePoint" />
            <mxPoint x="600" y="260" as="targetPoint" />
          </mxGeometry>
        </mxCell>
        <mxCell id="HjqkrDRJ8IezmJWhLxWS-49" value="1" style="resizable=0;html=1;whiteSpace=wrap;align=right;verticalAlign=bottom;" parent="HjqkrDRJ8IezmJWhLxWS-48" connectable="0" vertex="1">
          <mxGeometry x="1" relative="1" as="geometry" />
        </mxCell>
        <mxCell id="HjqkrDRJ8IezmJWhLxWS-50" value="" style="endArrow=none;html=1;rounded=0;entryX=1;entryY=1;entryDx=0;entryDy=0;" parent="1" source="HjqkrDRJ8IezmJWhLxWS-16" target="HjqkrDRJ8IezmJWhLxWS-15" edge="1">
          <mxGeometry relative="1" as="geometry">
            <mxPoint x="220" y="200" as="sourcePoint" />
            <mxPoint x="380" y="200" as="targetPoint" />
          </mxGeometry>
        </mxCell>
        <mxCell id="HjqkrDRJ8IezmJWhLxWS-51" value="1" style="resizable=0;html=1;whiteSpace=wrap;align=right;verticalAlign=bottom;" parent="HjqkrDRJ8IezmJWhLxWS-50" connectable="0" vertex="1">
          <mxGeometry x="1" relative="1" as="geometry">
            <mxPoint x="50" y="30" as="offset" />
          </mxGeometry>
        </mxCell>
        <mxCell id="HjqkrDRJ8IezmJWhLxWS-55" value="" style="endArrow=none;html=1;rounded=0;entryX=0;entryY=0.5;entryDx=0;entryDy=0;exitX=1;exitY=0.5;exitDx=0;exitDy=0;" parent="1" source="HjqkrDRJ8IezmJWhLxWS-10" target="HjqkrDRJ8IezmJWhLxWS-12" edge="1">
          <mxGeometry relative="1" as="geometry">
            <mxPoint x="160" y="390" as="sourcePoint" />
            <mxPoint x="320" y="390" as="targetPoint" />
          </mxGeometry>
        </mxCell>
        <mxCell id="HjqkrDRJ8IezmJWhLxWS-56" value="N" style="resizable=0;html=1;whiteSpace=wrap;align=right;verticalAlign=bottom;" parent="HjqkrDRJ8IezmJWhLxWS-55" connectable="0" vertex="1">
          <mxGeometry x="1" relative="1" as="geometry" />
        </mxCell>
        <mxCell id="HjqkrDRJ8IezmJWhLxWS-57" value="" style="endArrow=none;html=1;rounded=0;entryX=1;entryY=0;entryDx=0;entryDy=0;exitX=0;exitY=1;exitDx=0;exitDy=0;" parent="1" source="HjqkrDRJ8IezmJWhLxWS-1" target="HjqkrDRJ8IezmJWhLxWS-14" edge="1">
          <mxGeometry relative="1" as="geometry">
            <mxPoint x="240" y="350" as="sourcePoint" />
            <mxPoint x="400" y="350" as="targetPoint" />
          </mxGeometry>
        </mxCell>
        <mxCell id="HjqkrDRJ8IezmJWhLxWS-58" value="1" style="resizable=0;html=1;whiteSpace=wrap;align=right;verticalAlign=bottom;" parent="HjqkrDRJ8IezmJWhLxWS-57" connectable="0" vertex="1">
          <mxGeometry x="1" relative="1" as="geometry" />
        </mxCell>
        <mxCell id="HjqkrDRJ8IezmJWhLxWS-59" value="" style="endArrow=none;html=1;rounded=0;entryX=1;entryY=0;entryDx=0;entryDy=0;" parent="1" source="HjqkrDRJ8IezmJWhLxWS-14" target="HjqkrDRJ8IezmJWhLxWS-13" edge="1">
          <mxGeometry relative="1" as="geometry">
            <mxPoint x="130" y="420" as="sourcePoint" />
            <mxPoint x="290" y="420" as="targetPoint" />
          </mxGeometry>
        </mxCell>
        <mxCell id="HjqkrDRJ8IezmJWhLxWS-60" value="1" style="resizable=0;html=1;whiteSpace=wrap;align=right;verticalAlign=bottom;" parent="HjqkrDRJ8IezmJWhLxWS-59" connectable="0" vertex="1">
          <mxGeometry x="1" relative="1" as="geometry">
            <mxPoint x="30" y="-20" as="offset" />
          </mxGeometry>
        </mxCell>
        <mxCell id="HjqkrDRJ8IezmJWhLxWS-62" value="document" style="shape=ext;margin=3;double=1;whiteSpace=wrap;html=1;align=center;" parent="1" vertex="1">
          <mxGeometry x="870" y="110" width="100" height="40" as="geometry" />
        </mxCell>
        <mxCell id="HjqkrDRJ8IezmJWhLxWS-63" value="has a" style="shape=rhombus;perimeter=rhombusPerimeter;whiteSpace=wrap;html=1;align=center;" parent="1" vertex="1">
          <mxGeometry x="860" y="180" width="120" height="60" as="geometry" />
        </mxCell>
        <mxCell id="HjqkrDRJ8IezmJWhLxWS-64" value="" style="endArrow=none;html=1;rounded=0;entryX=0.5;entryY=1;entryDx=0;entryDy=0;exitX=0.5;exitY=0;exitDx=0;exitDy=0;" parent="1" source="HjqkrDRJ8IezmJWhLxWS-2" target="HjqkrDRJ8IezmJWhLxWS-63" edge="1">
          <mxGeometry relative="1" as="geometry">
            <mxPoint x="810" y="260" as="sourcePoint" />
            <mxPoint x="970" y="260" as="targetPoint" />
          </mxGeometry>
        </mxCell>
        <mxCell id="HjqkrDRJ8IezmJWhLxWS-65" value="1" style="resizable=0;html=1;whiteSpace=wrap;align=right;verticalAlign=bottom;" parent="HjqkrDRJ8IezmJWhLxWS-64" connectable="0" vertex="1">
          <mxGeometry x="1" relative="1" as="geometry">
            <mxPoint x="-10" y="10" as="offset" />
          </mxGeometry>
        </mxCell>
        <mxCell id="HjqkrDRJ8IezmJWhLxWS-66" value="" style="endArrow=none;html=1;rounded=0;entryX=0.5;entryY=1;entryDx=0;entryDy=0;exitX=0.5;exitY=0;exitDx=0;exitDy=0;" parent="1" source="HjqkrDRJ8IezmJWhLxWS-63" target="HjqkrDRJ8IezmJWhLxWS-62" edge="1">
          <mxGeometry relative="1" as="geometry">
            <mxPoint x="720" y="180" as="sourcePoint" />
            <mxPoint x="880" y="180" as="targetPoint" />
          </mxGeometry>
        </mxCell>
        <mxCell id="HjqkrDRJ8IezmJWhLxWS-67" value="1" style="resizable=0;html=1;whiteSpace=wrap;align=right;verticalAlign=bottom;" parent="HjqkrDRJ8IezmJWhLxWS-66" connectable="0" vertex="1">
          <mxGeometry x="1" relative="1" as="geometry">
            <mxPoint x="-10" y="31" as="offset" />
          </mxGeometry>
        </mxCell>
        <mxCell id="HjqkrDRJ8IezmJWhLxWS-70" value="" style="endArrow=none;html=1;rounded=0;dashed=1;dashPattern=1 2;exitX=0.5;exitY=0;exitDx=0;exitDy=0;entryX=0.5;entryY=1;entryDx=0;entryDy=0;" parent="1" source="HjqkrDRJ8IezmJWhLxWS-3" target="HjqkrDRJ8IezmJWhLxWS-5" edge="1">
          <mxGeometry relative="1" as="geometry">
            <mxPoint x="900" y="460" as="sourcePoint" />
            <mxPoint x="1060" y="460" as="targetPoint" />
          </mxGeometry>
        </mxCell>
        <mxCell id="HjqkrDRJ8IezmJWhLxWS-71" value="1" style="resizable=0;html=1;whiteSpace=wrap;align=right;verticalAlign=bottom;" parent="HjqkrDRJ8IezmJWhLxWS-70" connectable="0" vertex="1">
          <mxGeometry x="1" relative="1" as="geometry">
            <mxPoint x="20" y="21" as="offset" />
          </mxGeometry>
        </mxCell>
        <mxCell id="HjqkrDRJ8IezmJWhLxWS-72" value="N" style="resizable=0;html=1;whiteSpace=wrap;align=right;verticalAlign=bottom;" parent="1" connectable="0" vertex="1">
          <mxGeometry x="930" y="390.00176470588235" as="geometry">
            <mxPoint x="5" y="-11" as="offset" />
          </mxGeometry>
        </mxCell>
        <mxCell id="pNNl9wWvQv2_d3Wa4iCp-19" style="edgeStyle=orthogonalEdgeStyle;rounded=0;orthogonalLoop=1;jettySize=auto;html=1;exitX=0;exitY=0.5;exitDx=0;exitDy=0;entryX=1;entryY=0.25;entryDx=0;entryDy=0;" parent="1" source="pNNl9wWvQv2_d3Wa4iCp-1" target="HjqkrDRJ8IezmJWhLxWS-9" edge="1">
          <mxGeometry relative="1" as="geometry" />
        </mxCell>
        <mxCell id="pNNl9wWvQv2_d3Wa4iCp-1" value="id" style="ellipse;whiteSpace=wrap;html=1;align=center;fontStyle=4;" parent="1" vertex="1">
          <mxGeometry x="650" y="110" width="70" height="30" as="geometry" />
        </mxCell>
        <mxCell id="pNNl9wWvQv2_d3Wa4iCp-12" style="edgeStyle=orthogonalEdgeStyle;rounded=0;orthogonalLoop=1;jettySize=auto;html=1;exitX=0;exitY=0.5;exitDx=0;exitDy=0;entryX=1;entryY=0.5;entryDx=0;entryDy=0;" parent="1" source="pNNl9wWvQv2_d3Wa4iCp-2" target="HjqkrDRJ8IezmJWhLxWS-2" edge="1">
          <mxGeometry relative="1" as="geometry" />
        </mxCell>
        <mxCell id="pNNl9wWvQv2_d3Wa4iCp-2" value="id" style="ellipse;whiteSpace=wrap;html=1;align=center;fontStyle=4;" parent="1" vertex="1">
          <mxGeometry x="1000" y="285" width="70" height="30" as="geometry" />
        </mxCell>
        <mxCell id="pNNl9wWvQv2_d3Wa4iCp-11" style="edgeStyle=orthogonalEdgeStyle;rounded=0;orthogonalLoop=1;jettySize=auto;html=1;exitX=0;exitY=0.5;exitDx=0;exitDy=0;entryX=1;entryY=0.25;entryDx=0;entryDy=0;" parent="1" source="pNNl9wWvQv2_d3Wa4iCp-3" target="HjqkrDRJ8IezmJWhLxWS-62" edge="1">
          <mxGeometry relative="1" as="geometry" />
        </mxCell>
        <mxCell id="pNNl9wWvQv2_d3Wa4iCp-3" value="id" style="ellipse;whiteSpace=wrap;html=1;align=center;fontStyle=4;" parent="1" vertex="1">
          <mxGeometry x="1010" y="110" width="70" height="30" as="geometry" />
        </mxCell>
        <mxCell id="pNNl9wWvQv2_d3Wa4iCp-20" style="edgeStyle=orthogonalEdgeStyle;rounded=0;orthogonalLoop=1;jettySize=auto;html=1;exitX=0;exitY=0.5;exitDx=0;exitDy=0;entryX=0.75;entryY=1;entryDx=0;entryDy=0;" parent="1" source="pNNl9wWvQv2_d3Wa4iCp-4" target="HjqkrDRJ8IezmJWhLxWS-1" edge="1">
          <mxGeometry relative="1" as="geometry" />
        </mxCell>
        <mxCell id="pNNl9wWvQv2_d3Wa4iCp-4" value="id" style="ellipse;whiteSpace=wrap;html=1;align=center;fontStyle=4;" parent="1" vertex="1">
          <mxGeometry x="620" y="330" width="70" height="30" as="geometry" />
        </mxCell>
        <mxCell id="pNNl9wWvQv2_d3Wa4iCp-18" style="edgeStyle=orthogonalEdgeStyle;rounded=0;orthogonalLoop=1;jettySize=auto;html=1;exitX=1;exitY=0.5;exitDx=0;exitDy=0;entryX=0;entryY=0.25;entryDx=0;entryDy=0;" parent="1" source="pNNl9wWvQv2_d3Wa4iCp-5" target="HjqkrDRJ8IezmJWhLxWS-15" edge="1">
          <mxGeometry relative="1" as="geometry" />
        </mxCell>
        <mxCell id="pNNl9wWvQv2_d3Wa4iCp-5" value="id" style="ellipse;whiteSpace=wrap;html=1;align=center;fontStyle=4;" parent="1" vertex="1">
          <mxGeometry x="140" y="110" width="70" height="30" as="geometry" />
        </mxCell>
        <mxCell id="pNNl9wWvQv2_d3Wa4iCp-13" style="edgeStyle=orthogonalEdgeStyle;rounded=0;orthogonalLoop=1;jettySize=auto;html=1;exitX=0;exitY=0.5;exitDx=0;exitDy=0;entryX=1;entryY=1;entryDx=0;entryDy=0;" parent="1" source="pNNl9wWvQv2_d3Wa4iCp-6" target="HjqkrDRJ8IezmJWhLxWS-3" edge="1">
          <mxGeometry relative="1" as="geometry" />
        </mxCell>
        <mxCell id="pNNl9wWvQv2_d3Wa4iCp-6" value="id" style="ellipse;whiteSpace=wrap;html=1;align=center;fontStyle=4;" parent="1" vertex="1">
          <mxGeometry x="1000" y="530" width="70" height="30" as="geometry" />
        </mxCell>
        <mxCell id="pNNl9wWvQv2_d3Wa4iCp-14" style="edgeStyle=orthogonalEdgeStyle;rounded=0;orthogonalLoop=1;jettySize=auto;html=1;exitX=0;exitY=0.5;exitDx=0;exitDy=0;entryX=1;entryY=1;entryDx=0;entryDy=0;" parent="1" source="pNNl9wWvQv2_d3Wa4iCp-7" target="HjqkrDRJ8IezmJWhLxWS-18" edge="1">
          <mxGeometry relative="1" as="geometry" />
        </mxCell>
        <mxCell id="pNNl9wWvQv2_d3Wa4iCp-7" value="id" style="ellipse;whiteSpace=wrap;html=1;align=center;fontStyle=4;" parent="1" vertex="1">
          <mxGeometry x="750" y="650" width="70" height="30" as="geometry" />
        </mxCell>
        <mxCell id="pNNl9wWvQv2_d3Wa4iCp-15" style="edgeStyle=orthogonalEdgeStyle;rounded=0;orthogonalLoop=1;jettySize=auto;html=1;exitX=1;exitY=0.5;exitDx=0;exitDy=0;entryX=0;entryY=1;entryDx=0;entryDy=0;" parent="1" source="pNNl9wWvQv2_d3Wa4iCp-8" target="HjqkrDRJ8IezmJWhLxWS-6" edge="1">
          <mxGeometry relative="1" as="geometry" />
        </mxCell>
        <mxCell id="pNNl9wWvQv2_d3Wa4iCp-8" value="id" style="ellipse;whiteSpace=wrap;html=1;align=center;fontStyle=4;" parent="1" vertex="1">
          <mxGeometry x="400" y="560" width="70" height="30" as="geometry" />
        </mxCell>
        <mxCell id="pNNl9wWvQv2_d3Wa4iCp-17" style="edgeStyle=orthogonalEdgeStyle;rounded=0;orthogonalLoop=1;jettySize=auto;html=1;exitX=1;exitY=1;exitDx=0;exitDy=0;entryX=0;entryY=0.5;entryDx=0;entryDy=0;" parent="1" source="pNNl9wWvQv2_d3Wa4iCp-9" target="HjqkrDRJ8IezmJWhLxWS-10" edge="1">
          <mxGeometry relative="1" as="geometry" />
        </mxCell>
        <mxCell id="pNNl9wWvQv2_d3Wa4iCp-9" value="id" style="ellipse;whiteSpace=wrap;html=1;align=center;fontStyle=4;" parent="1" vertex="1">
          <mxGeometry x="50" y="250" width="70" height="30" as="geometry" />
        </mxCell>
        <mxCell id="pNNl9wWvQv2_d3Wa4iCp-21" style="edgeStyle=orthogonalEdgeStyle;rounded=0;orthogonalLoop=1;jettySize=auto;html=1;exitX=1;exitY=0.5;exitDx=0;exitDy=0;entryX=0;entryY=1;entryDx=0;entryDy=0;" parent="1" source="pNNl9wWvQv2_d3Wa4iCp-16" target="HjqkrDRJ8IezmJWhLxWS-13" edge="1">
          <mxGeometry relative="1" as="geometry" />
        </mxCell>
        <mxCell id="pNNl9wWvQv2_d3Wa4iCp-16" value="id" style="ellipse;whiteSpace=wrap;html=1;align=center;fontStyle=4;" parent="1" vertex="1">
          <mxGeometry x="110" y="540" width="70" height="30" as="geometry" />
        </mxCell>
        <mxCell id="pNNl9wWvQv2_d3Wa4iCp-24" value="name" style="ellipse;whiteSpace=wrap;html=1;align=center;" parent="1" vertex="1">
          <mxGeometry x="480" y="570" width="60" height="30" as="geometry" />
        </mxCell>
        <mxCell id="pNNl9wWvQv2_d3Wa4iCp-27" style="edgeStyle=orthogonalEdgeStyle;rounded=0;orthogonalLoop=1;jettySize=auto;html=1;exitX=0.5;exitY=0;exitDx=0;exitDy=0;entryX=0.5;entryY=1;entryDx=0;entryDy=0;" parent="1" source="pNNl9wWvQv2_d3Wa4iCp-25" target="HjqkrDRJ8IezmJWhLxWS-3" edge="1">
          <mxGeometry relative="1" as="geometry" />
        </mxCell>
        <mxCell id="pNNl9wWvQv2_d3Wa4iCp-25" value="name" style="ellipse;whiteSpace=wrap;html=1;align=center;" parent="1" vertex="1">
          <mxGeometry x="920" y="560" width="60" height="30" as="geometry" />
        </mxCell>
        <mxCell id="pNNl9wWvQv2_d3Wa4iCp-26" value="name" style="ellipse;whiteSpace=wrap;html=1;align=center;" parent="1" vertex="1">
          <mxGeometry x="625" y="240" width="60" height="30" as="geometry" />
        </mxCell>
        <mxCell id="pNNl9wWvQv2_d3Wa4iCp-28" style="edgeStyle=orthogonalEdgeStyle;rounded=0;orthogonalLoop=1;jettySize=auto;html=1;exitX=0.5;exitY=0;exitDx=0;exitDy=0;entryX=0.382;entryY=1.013;entryDx=0;entryDy=0;entryPerimeter=0;" parent="1" source="pNNl9wWvQv2_d3Wa4iCp-24" target="HjqkrDRJ8IezmJWhLxWS-6" edge="1">
          <mxGeometry relative="1" as="geometry" />
        </mxCell>
        <mxCell id="pNNl9wWvQv2_d3Wa4iCp-29" style="edgeStyle=orthogonalEdgeStyle;rounded=0;orthogonalLoop=1;jettySize=auto;html=1;exitX=0;exitY=0.5;exitDx=0;exitDy=0;entryX=0.849;entryY=-0.058;entryDx=0;entryDy=0;entryPerimeter=0;" parent="1" source="pNNl9wWvQv2_d3Wa4iCp-26" target="HjqkrDRJ8IezmJWhLxWS-1" edge="1">
          <mxGeometry relative="1" as="geometry" />
        </mxCell>
        <mxCell id="pNNl9wWvQv2_d3Wa4iCp-30" value="email" style="ellipse;whiteSpace=wrap;html=1;align=center;" parent="1" vertex="1">
          <mxGeometry x="850" y="550" width="60" height="30" as="geometry" />
        </mxCell>
        <mxCell id="pNNl9wWvQv2_d3Wa4iCp-37" style="edgeStyle=orthogonalEdgeStyle;rounded=0;orthogonalLoop=1;jettySize=auto;html=1;exitX=0.5;exitY=0;exitDx=0;exitDy=0;entryX=1;entryY=0.75;entryDx=0;entryDy=0;" parent="1" source="pNNl9wWvQv2_d3Wa4iCp-34" target="HjqkrDRJ8IezmJWhLxWS-6" edge="1">
          <mxGeometry relative="1" as="geometry" />
        </mxCell>
        <mxCell id="pNNl9wWvQv2_d3Wa4iCp-34" value="email" style="ellipse;whiteSpace=wrap;html=1;align=center;" parent="1" vertex="1">
          <mxGeometry x="540" y="550" width="60" height="30" as="geometry" />
        </mxCell>
        <mxCell id="pNNl9wWvQv2_d3Wa4iCp-36" style="edgeStyle=orthogonalEdgeStyle;rounded=0;orthogonalLoop=1;jettySize=auto;html=1;exitX=1;exitY=0;exitDx=0;exitDy=0;entryX=0;entryY=0.5;entryDx=0;entryDy=0;" parent="1" source="pNNl9wWvQv2_d3Wa4iCp-35" target="HjqkrDRJ8IezmJWhLxWS-1" edge="1">
          <mxGeometry relative="1" as="geometry" />
        </mxCell>
        <mxCell id="pNNl9wWvQv2_d3Wa4iCp-35" value="email" style="ellipse;whiteSpace=wrap;html=1;align=center;" parent="1" vertex="1">
          <mxGeometry x="440" y="315" width="60" height="30" as="geometry" />
        </mxCell>
        <mxCell id="pNNl9wWvQv2_d3Wa4iCp-38" style="edgeStyle=orthogonalEdgeStyle;rounded=0;orthogonalLoop=1;jettySize=auto;html=1;exitX=0.5;exitY=0;exitDx=0;exitDy=0;entryX=0.154;entryY=1.025;entryDx=0;entryDy=0;entryPerimeter=0;" parent="1" source="pNNl9wWvQv2_d3Wa4iCp-30" target="HjqkrDRJ8IezmJWhLxWS-3" edge="1">
          <mxGeometry relative="1" as="geometry" />
        </mxCell>
        <mxCell id="pNNl9wWvQv2_d3Wa4iCp-39" value="password" style="ellipse;whiteSpace=wrap;html=1;align=center;" parent="1" vertex="1">
          <mxGeometry x="450" y="250" width="60" height="30" as="geometry" />
        </mxCell>
        <mxCell id="pNNl9wWvQv2_d3Wa4iCp-43" style="edgeStyle=orthogonalEdgeStyle;rounded=0;orthogonalLoop=1;jettySize=auto;html=1;exitX=0;exitY=0.5;exitDx=0;exitDy=0;entryX=1;entryY=0.5;entryDx=0;entryDy=0;" parent="1" source="pNNl9wWvQv2_d3Wa4iCp-40" target="HjqkrDRJ8IezmJWhLxWS-3" edge="1">
          <mxGeometry relative="1" as="geometry" />
        </mxCell>
        <mxCell id="pNNl9wWvQv2_d3Wa4iCp-40" value="email" style="ellipse;whiteSpace=wrap;html=1;align=center;" parent="1" vertex="1">
          <mxGeometry x="1000" y="490" width="60" height="30" as="geometry" />
        </mxCell>
        <mxCell id="pNNl9wWvQv2_d3Wa4iCp-42" style="edgeStyle=orthogonalEdgeStyle;rounded=0;orthogonalLoop=1;jettySize=auto;html=1;exitX=1;exitY=0.5;exitDx=0;exitDy=0;entryX=0;entryY=0.5;entryDx=0;entryDy=0;" parent="1" source="pNNl9wWvQv2_d3Wa4iCp-41" target="HjqkrDRJ8IezmJWhLxWS-6" edge="1">
          <mxGeometry relative="1" as="geometry" />
        </mxCell>
        <mxCell id="pNNl9wWvQv2_d3Wa4iCp-41" value="password" style="ellipse;whiteSpace=wrap;html=1;align=center;" parent="1" vertex="1">
          <mxGeometry x="390" y="510" width="60" height="30" as="geometry" />
        </mxCell>
        <mxCell id="pNNl9wWvQv2_d3Wa4iCp-44" value="start_date" style="ellipse;whiteSpace=wrap;html=1;align=center;" parent="1" vertex="1">
          <mxGeometry x="980" y="250" width="60" height="30" as="geometry" />
        </mxCell>
        <mxCell id="pNNl9wWvQv2_d3Wa4iCp-46" style="edgeStyle=orthogonalEdgeStyle;rounded=0;orthogonalLoop=1;jettySize=auto;html=1;exitX=1;exitY=0.5;exitDx=0;exitDy=0;entryX=0;entryY=0.25;entryDx=0;entryDy=0;" parent="1" source="pNNl9wWvQv2_d3Wa4iCp-45" target="HjqkrDRJ8IezmJWhLxWS-9" edge="1">
          <mxGeometry relative="1" as="geometry" />
        </mxCell>
        <mxCell id="pNNl9wWvQv2_d3Wa4iCp-45" value="start_date" style="ellipse;whiteSpace=wrap;html=1;align=center;" parent="1" vertex="1">
          <mxGeometry x="430" y="110" width="60" height="30" as="geometry" />
        </mxCell>
        <mxCell id="pNNl9wWvQv2_d3Wa4iCp-47" style="edgeStyle=orthogonalEdgeStyle;rounded=0;orthogonalLoop=1;jettySize=auto;html=1;exitX=0;exitY=0.5;exitDx=0;exitDy=0;entryX=0.849;entryY=0.061;entryDx=0;entryDy=0;entryPerimeter=0;" parent="1" source="pNNl9wWvQv2_d3Wa4iCp-44" target="HjqkrDRJ8IezmJWhLxWS-2" edge="1">
          <mxGeometry relative="1" as="geometry" />
        </mxCell>
        <mxCell id="pNNl9wWvQv2_d3Wa4iCp-50" style="edgeStyle=orthogonalEdgeStyle;rounded=0;orthogonalLoop=1;jettySize=auto;html=1;exitX=0;exitY=0.5;exitDx=0;exitDy=0;entryX=1;entryY=1;entryDx=0;entryDy=0;" parent="1" source="pNNl9wWvQv2_d3Wa4iCp-48" target="HjqkrDRJ8IezmJWhLxWS-2" edge="1">
          <mxGeometry relative="1" as="geometry" />
        </mxCell>
        <mxCell id="pNNl9wWvQv2_d3Wa4iCp-48" value="end_date" style="ellipse;whiteSpace=wrap;html=1;align=center;" parent="1" vertex="1">
          <mxGeometry x="990" y="330" width="60" height="30" as="geometry" />
        </mxCell>
        <mxCell id="pNNl9wWvQv2_d3Wa4iCp-51" style="edgeStyle=orthogonalEdgeStyle;rounded=0;orthogonalLoop=1;jettySize=auto;html=1;exitX=1;exitY=0.5;exitDx=0;exitDy=0;entryX=0;entryY=1;entryDx=0;entryDy=0;" parent="1" source="pNNl9wWvQv2_d3Wa4iCp-49" target="HjqkrDRJ8IezmJWhLxWS-9" edge="1">
          <mxGeometry relative="1" as="geometry" />
        </mxCell>
        <mxCell id="pNNl9wWvQv2_d3Wa4iCp-49" value="end_date" style="ellipse;whiteSpace=wrap;html=1;align=center;" parent="1" vertex="1">
          <mxGeometry x="440" y="150" width="60" height="30" as="geometry" />
        </mxCell>
        <mxCell id="pNNl9wWvQv2_d3Wa4iCp-54" style="edgeStyle=orthogonalEdgeStyle;rounded=0;orthogonalLoop=1;jettySize=auto;html=1;exitX=1;exitY=0.5;exitDx=0;exitDy=0;entryX=0.25;entryY=1;entryDx=0;entryDy=0;" parent="1" source="pNNl9wWvQv2_d3Wa4iCp-53" target="HjqkrDRJ8IezmJWhLxWS-2" edge="1">
          <mxGeometry relative="1" as="geometry" />
        </mxCell>
        <mxCell id="pNNl9wWvQv2_d3Wa4iCp-53" value="bill" style="ellipse;whiteSpace=wrap;html=1;align=center;" parent="1" vertex="1">
          <mxGeometry x="830" y="330" width="60" height="30" as="geometry" />
        </mxCell>
        <mxCell id="pNNl9wWvQv2_d3Wa4iCp-59" style="edgeStyle=orthogonalEdgeStyle;rounded=0;orthogonalLoop=1;jettySize=auto;html=1;exitX=1;exitY=0.5;exitDx=0;exitDy=0;entryX=0;entryY=0.75;entryDx=0;entryDy=0;" parent="1" source="pNNl9wWvQv2_d3Wa4iCp-55" target="HjqkrDRJ8IezmJWhLxWS-10" edge="1">
          <mxGeometry relative="1" as="geometry" />
        </mxCell>
        <mxCell id="pNNl9wWvQv2_d3Wa4iCp-55" value="start_hour" style="ellipse;whiteSpace=wrap;html=1;align=center;" parent="1" vertex="1">
          <mxGeometry x="50" y="300" width="60" height="30" as="geometry" />
        </mxCell>
        <mxCell id="pNNl9wWvQv2_d3Wa4iCp-60" style="edgeStyle=orthogonalEdgeStyle;rounded=0;orthogonalLoop=1;jettySize=auto;html=1;exitX=0.5;exitY=0;exitDx=0;exitDy=0;" parent="1" source="pNNl9wWvQv2_d3Wa4iCp-56" edge="1">
          <mxGeometry relative="1" as="geometry">
            <mxPoint x="150" y="320" as="targetPoint" />
          </mxGeometry>
        </mxCell>
        <mxCell id="pNNl9wWvQv2_d3Wa4iCp-56" value="end_hour" style="ellipse;whiteSpace=wrap;html=1;align=center;" parent="1" vertex="1">
          <mxGeometry x="115" y="340" width="60" height="30" as="geometry" />
        </mxCell>
        <mxCell id="pNNl9wWvQv2_d3Wa4iCp-58" value="day" style="ellipse;whiteSpace=wrap;html=1;align=center;" parent="1" vertex="1">
          <mxGeometry x="190" y="340" width="60" height="30" as="geometry" />
        </mxCell>
        <mxCell id="pNNl9wWvQv2_d3Wa4iCp-61" style="edgeStyle=orthogonalEdgeStyle;rounded=0;orthogonalLoop=1;jettySize=auto;html=1;exitX=0.5;exitY=0;exitDx=0;exitDy=0;entryX=0.63;entryY=1.061;entryDx=0;entryDy=0;entryPerimeter=0;" parent="1" source="pNNl9wWvQv2_d3Wa4iCp-58" target="HjqkrDRJ8IezmJWhLxWS-10" edge="1">
          <mxGeometry relative="1" as="geometry" />
        </mxCell>
        <mxCell id="pNNl9wWvQv2_d3Wa4iCp-63" style="edgeStyle=orthogonalEdgeStyle;rounded=0;orthogonalLoop=1;jettySize=auto;html=1;exitX=0.5;exitY=0;exitDx=0;exitDy=0;entryX=0.25;entryY=1;entryDx=0;entryDy=0;" parent="1" source="pNNl9wWvQv2_d3Wa4iCp-62" target="HjqkrDRJ8IezmJWhLxWS-18" edge="1">
          <mxGeometry relative="1" as="geometry" />
        </mxCell>
        <mxCell id="pNNl9wWvQv2_d3Wa4iCp-62" value="balance" style="ellipse;whiteSpace=wrap;html=1;align=center;" parent="1" vertex="1">
          <mxGeometry x="640" y="660" width="60" height="30" as="geometry" />
        </mxCell>
        <mxCell id="pNNl9wWvQv2_d3Wa4iCp-65" style="edgeStyle=orthogonalEdgeStyle;rounded=0;orthogonalLoop=1;jettySize=auto;html=1;exitX=1;exitY=0.5;exitDx=0;exitDy=0;entryX=0;entryY=0.5;entryDx=0;entryDy=0;" parent="1" source="pNNl9wWvQv2_d3Wa4iCp-64" target="HjqkrDRJ8IezmJWhLxWS-13" edge="1">
          <mxGeometry relative="1" as="geometry" />
        </mxCell>
        <mxCell id="pNNl9wWvQv2_d3Wa4iCp-64" value="alias" style="ellipse;whiteSpace=wrap;html=1;align=center;" parent="1" vertex="1">
          <mxGeometry x="90" y="480" width="60" height="30" as="geometry" />
        </mxCell>
        <mxCell id="pNNl9wWvQv2_d3Wa4iCp-69" style="edgeStyle=orthogonalEdgeStyle;rounded=0;orthogonalLoop=1;jettySize=auto;html=1;exitX=1;exitY=0.5;exitDx=0;exitDy=0;entryX=0;entryY=0.5;entryDx=0;entryDy=0;" parent="1" source="pNNl9wWvQv2_d3Wa4iCp-66" target="HjqkrDRJ8IezmJWhLxWS-62" edge="1">
          <mxGeometry relative="1" as="geometry" />
        </mxCell>
        <mxCell id="pNNl9wWvQv2_d3Wa4iCp-66" value="prescription" style="ellipse;whiteSpace=wrap;html=1;align=center;" parent="1" vertex="1">
          <mxGeometry x="790" y="120" width="60" height="30" as="geometry" />
        </mxCell>
        <mxCell id="pNNl9wWvQv2_d3Wa4iCp-68" style="edgeStyle=orthogonalEdgeStyle;rounded=0;orthogonalLoop=1;jettySize=auto;html=1;exitX=0;exitY=0;exitDx=0;exitDy=0;entryX=1;entryY=0.75;entryDx=0;entryDy=0;" parent="1" source="pNNl9wWvQv2_d3Wa4iCp-67" target="HjqkrDRJ8IezmJWhLxWS-62" edge="1">
          <mxGeometry relative="1" as="geometry" />
        </mxCell>
        <mxCell id="pNNl9wWvQv2_d3Wa4iCp-67" value="details" style="ellipse;whiteSpace=wrap;html=1;align=center;" parent="1" vertex="1">
          <mxGeometry x="980" y="150" width="60" height="30" as="geometry" />
        </mxCell>
        <mxCell id="pNNl9wWvQv2_d3Wa4iCp-74" style="edgeStyle=orthogonalEdgeStyle;rounded=0;orthogonalLoop=1;jettySize=auto;html=1;exitX=1;exitY=0;exitDx=0;exitDy=0;entryX=0.25;entryY=1;entryDx=0;entryDy=0;" parent="1" source="pNNl9wWvQv2_d3Wa4iCp-70" target="HjqkrDRJ8IezmJWhLxWS-15" edge="1">
          <mxGeometry relative="1" as="geometry" />
        </mxCell>
        <mxCell id="pNNl9wWvQv2_d3Wa4iCp-70" value="room" style="ellipse;whiteSpace=wrap;html=1;align=center;" parent="1" vertex="1">
          <mxGeometry x="190" y="190" width="60" height="30" as="geometry" />
        </mxCell>
        <mxCell id="pNNl9wWvQv2_d3Wa4iCp-73" style="edgeStyle=orthogonalEdgeStyle;rounded=0;orthogonalLoop=1;jettySize=auto;html=1;exitX=1;exitY=0.5;exitDx=0;exitDy=0;entryX=0;entryY=0.75;entryDx=0;entryDy=0;" parent="1" source="pNNl9wWvQv2_d3Wa4iCp-71" target="HjqkrDRJ8IezmJWhLxWS-15" edge="1">
          <mxGeometry relative="1" as="geometry" />
        </mxCell>
        <mxCell id="pNNl9wWvQv2_d3Wa4iCp-71" value="address" style="ellipse;whiteSpace=wrap;html=1;align=center;" parent="1" vertex="1">
          <mxGeometry x="145" y="150" width="60" height="30" as="geometry" />
        </mxCell>
        <mxCell id="KuMHuxVkpf0_pSYLcks3-1" value="city" style="rounded=1;arcSize=10;whiteSpace=wrap;html=1;align=center;" vertex="1" parent="1">
          <mxGeometry x="90" y="30" width="100" height="40" as="geometry" />
        </mxCell>
        <mxCell id="KuMHuxVkpf0_pSYLcks3-4" style="edgeStyle=orthogonalEdgeStyle;rounded=0;orthogonalLoop=1;jettySize=auto;html=1;exitX=0;exitY=0.5;exitDx=0;exitDy=0;entryX=1;entryY=0.5;entryDx=0;entryDy=0;" edge="1" parent="1" source="KuMHuxVkpf0_pSYLcks3-2" target="KuMHuxVkpf0_pSYLcks3-1">
          <mxGeometry relative="1" as="geometry" />
        </mxCell>
        <mxCell id="KuMHuxVkpf0_pSYLcks3-2" value="IN" style="shape=rhombus;perimeter=rhombusPerimeter;whiteSpace=wrap;html=1;align=center;" vertex="1" parent="1">
          <mxGeometry x="230" y="30" width="120" height="60" as="geometry" />
        </mxCell>
        <mxCell id="KuMHuxVkpf0_pSYLcks3-7" style="edgeStyle=orthogonalEdgeStyle;rounded=0;orthogonalLoop=1;jettySize=auto;html=1;exitX=1;exitY=0.5;exitDx=0;exitDy=0;entryX=0;entryY=0;entryDx=0;entryDy=0;" edge="1" parent="1" source="KuMHuxVkpf0_pSYLcks3-5" target="KuMHuxVkpf0_pSYLcks3-1">
          <mxGeometry relative="1" as="geometry" />
        </mxCell>
        <mxCell id="KuMHuxVkpf0_pSYLcks3-5" value="id" style="ellipse;whiteSpace=wrap;html=1;align=center;fontStyle=4;" vertex="1" parent="1">
          <mxGeometry x="10" y="10" width="70" height="30" as="geometry" />
        </mxCell>
        <mxCell id="KuMHuxVkpf0_pSYLcks3-8" style="edgeStyle=orthogonalEdgeStyle;rounded=0;orthogonalLoop=1;jettySize=auto;html=1;exitX=1;exitY=0.5;exitDx=0;exitDy=0;entryX=0;entryY=0.75;entryDx=0;entryDy=0;" edge="1" parent="1" source="KuMHuxVkpf0_pSYLcks3-6" target="KuMHuxVkpf0_pSYLcks3-1">
          <mxGeometry relative="1" as="geometry" />
        </mxCell>
        <mxCell id="KuMHuxVkpf0_pSYLcks3-6" value="alias" style="ellipse;whiteSpace=wrap;html=1;align=center;" vertex="1" parent="1">
          <mxGeometry x="15" y="50" width="60" height="30" as="geometry" />
        </mxCell>
      </root>
    </mxGraphModel>
  </diagram>
</mxfile>
